#N canvas 626 316 450 300 10;
#X obj 98 125 route 0 1;
#X obj 100 168 \$1;
#X obj 140 168 \$1;
#X obj 192 126 print;
#X obj 87 77 netreceive 3000;
#X connect 0 0 1 0;
#X connect 0 1 2 0;
#X connect 4 0 0 0;
#X connect 4 0 3 0;
